<?xml version="1.0" encoding="UTF-8"?>
<!DOCTYPE svg PUBLIC "-//W3C//DTD SVG 1.1//EN" "http://www.w3.org/Graphics/SVG/1.1/DTD/svg11.dtd">
<!-- Creator: CorelDRAW 2020 (64-Bit) -->
<svg xmlns="http://www.w3.org/2000/svg" xml:space="preserve" width="46.2839mm" height="17.0934mm" version="1.1" style="shape-rendering:geometricPrecision; text-rendering:geometricPrecision; image-rendering:optimizeQuality; fill-rule:evenodd; clip-rule:evenodd"
viewBox="0 0 120.48 44.5"
 xmlns:xlink="http://www.w3.org/1999/xlink"
 xmlns:xodm="http://www.corel.com/coreldraw/odm/2003"
 class="hero-text-svg">

  <path class="hero-text-svg" d="M12.62 18.6l-11.1 0 0 2.02 -1.49 0 0 -5.59 1.49 0 0 2.02 11.1 0 0 1.56zm0 -5.29l-12.6 0 0 -1.55 5.53 0 0 -2.55 -5.53 0 0 -1.56 12.6 0 0 1.56 -5.61 0 0 2.55 5.61 0 0 1.55zm0 -8.33l-12.6 0 0 -4.5 1.48 0 0 2.96 3.78 0 0 -2.74 1.48 0 0 2.74 4.37 0 0 -3.11 1.49 0 0 4.65z"/>
  <path class="hero-text-svg" d="M2.49 42.09l0.45 0c1.44,0 2.5,-0.62 3.18,-1.87 0.68,-1.25 1.02,-3.19 1.02,-5.84 0,-2.71 -0.34,-4.69 -1.01,-5.92 -0.67,-1.24 -1.74,-1.85 -3.19,-1.85l-0.45 0 0 15.49zm-2.49 2.4l0 -20.26 2.91 0c2.29,0 4,0.84 5.14,2.52 1.13,1.68 1.7,4.21 1.7,7.6 0,3.39 -0.57,5.93 -1.71,7.61 -1.14,1.69 -2.84,2.53 -5.13,2.53l-2.91 0zm13.9 0l0 -20.26 7.2 0 0 2.37 -4.74 0 0 6.08 4.38 0 0 2.37 -4.38 0 0 7.03 4.98 0 0 2.4 -7.44 0zm14.16 -11.39l0.09 0c1.07,0 1.87,-0.27 2.41,-0.8 0.54,-0.54 0.81,-1.33 0.81,-2.38 0,-1.08 -0.27,-1.9 -0.81,-2.47 -0.54,-0.56 -1.32,-0.85 -2.36,-0.85l-0.14 0 0 6.5zm-2.49 11.39l0 -20.26 2.52 0c1.86,0 3.31,0.48 4.34,1.45 1.04,0.96 1.56,2.31 1.56,4.04 0,1.7 -0.49,3.08 -1.47,4.15 -0.98,1.07 -2.22,1.6 -3.72,1.6l-0.2 0 -0.53 0 0 9.02 -2.49 0zm13.34 -6.82l2.89 0 -1.06 -6.53c-0.07,-0.46 -0.15,-0.95 -0.21,-1.46 -0.06,-0.51 -0.12,-1.05 -0.18,-1.61 -0.07,0.66 -0.13,1.23 -0.2,1.73 -0.06,0.49 -0.12,0.94 -0.19,1.36l-1.06 6.52zm-3.68 6.82l3.76 -20.26 2.73 0 3.79 20.26 -2.55 0 -0.74 -4.48 -3.7 0 -0.77 4.48 -2.52 0zm16.04 -11.63l0.23 0c0.7,0 1.24,-0.25 1.61,-0.75 0.37,-0.5 0.56,-1.22 0.56,-2.17 0,-1.1 -0.2,-1.94 -0.59,-2.52 -0.39,-0.57 -0.95,-0.86 -1.7,-0.86l-0.11 0 0 6.29zm-2.46 11.63l0 -20.26 2.4 0c1.54,0 2.75,0.49 3.65,1.46 0.9,0.97 1.35,2.29 1.35,3.94 0,1.02 -0.19,1.89 -0.58,2.6 -0.39,0.71 -0.99,1.29 -1.8,1.73 0.62,0.32 1.13,0.86 1.54,1.6 0.41,0.75 0.8,1.92 1.2,3.53l1.27 5.4 -2.54 0 -1.13 -4.84c-0.38,-1.59 -0.77,-2.74 -1.16,-3.45 -0.4,-0.71 -0.86,-1.06 -1.38,-1.06 -0.05,0 -0.09,0 -0.14,0 -0.04,0 -0.11,0.02 -0.22,0.05l0 9.29 -2.46 0zm14.01 0l0 -17.86 -3.23 0 0 -2.4 8.95 0 0 2.4 -3.23 0 0 17.86 -2.49 0zm9.1 0l0 -20.26 2.34 0 2.26 5.77c0.06,0.18 0.16,0.45 0.28,0.81 0.12,0.36 0.26,0.8 0.42,1.32 0.12,-0.43 0.25,-0.83 0.37,-1.18 0.12,-0.36 0.24,-0.68 0.37,-0.99l2.26 -5.72 2.34 0 0 20.26 -2.34 0 0 -11.86c0,-0.51 0.01,-1.04 0.03,-1.59 0.02,-0.55 0.06,-1.12 0.11,-1.7l-3.14 7.62 -3.13 -7.63c0.06,0.72 0.1,1.35 0.13,1.9 0.03,0.55 0.04,1.02 0.04,1.4l0 11.86 -2.34 0zm15.49 0l0 -20.26 7.2 0 0 2.37 -4.74 0 0 6.08 4.38 0 0 2.37 -4.38 0 0 7.03 4.98 0 0 2.4 -7.44 0zm11.67 -20.26l2.14 0 3.49 9.91c0.19,0.52 0.48,1.39 0.87,2.61 0.15,0.47 0.27,0.83 0.35,1.07 -0.04,-0.75 -0.08,-1.51 -0.11,-2.29 -0.02,-0.78 -0.03,-1.62 -0.03,-2.52l0 -8.78 2.34 0 0 20.26 -2.17 0 -3.46 -9.79c-0.13,-0.35 -0.33,-0.95 -0.62,-1.81 -0.28,-0.86 -0.48,-1.47 -0.6,-1.82 0.05,0.73 0.08,1.49 0.11,2.27 0.02,0.79 0.03,1.62 0.03,2.49l0 8.66 -2.34 0 0 -20.26zm15.64 20.26l0 -17.86 -3.23 0 0 -2.4 8.95 0 0 2.4 -3.23 0 0 17.86 -2.49 0z"/>
  <path class="hero-text-svg" d="M16.19 20.62l0 -20.26 2.34 0 2.26 5.77c0.06,0.18 0.16,0.45 0.28,0.81 0.12,0.36 0.26,0.8 0.43,1.32 0.12,-0.43 0.25,-0.83 0.37,-1.18 0.12,-0.36 0.24,-0.68 0.37,-0.99l2.26 -5.72 2.34 0 0 20.26 -2.34 0 0 -11.86c0,-0.51 0.01,-1.04 0.03,-1.59 0.02,-0.55 0.06,-1.12 0.11,-1.7l-3.14 7.62 -3.14 -7.63c0.06,0.72 0.1,1.35 0.13,1.9 0.03,0.55 0.04,1.02 0.04,1.4l0 11.86 -2.34 0zm17.52 -6.82l2.9 0 -1.06 -6.53c-0.07,-0.46 -0.15,-0.95 -0.21,-1.46 -0.06,-0.51 -0.12,-1.05 -0.18,-1.61 -0.07,0.66 -0.13,1.23 -0.2,1.73 -0.06,0.49 -0.12,0.94 -0.19,1.36l-1.06 6.52zm-3.68 6.82l3.77 -20.26 2.73 0 3.8 20.26 -2.55 0 -0.74 -4.48 -3.71 0 -0.77 4.48 -2.52 0zm15.95 -11.63l0.23 0c0.7,0 1.24,-0.25 1.61,-0.75 0.37,-0.5 0.56,-1.22 0.56,-2.17 0,-1.1 -0.2,-1.94 -0.59,-2.52 -0.39,-0.57 -0.95,-0.86 -1.7,-0.86l-0.11 0 0 6.29zm-2.46 11.63l0 -20.26 2.4 0c1.54,0 2.75,0.49 3.66,1.46 0.9,0.97 1.35,2.29 1.35,3.94 0,1.02 -0.19,1.89 -0.58,2.6 -0.39,0.71 -0.99,1.29 -1.8,1.73 0.62,0.32 1.13,0.86 1.54,1.6 0.41,0.75 0.81,1.92 1.2,3.53l1.27 5.4 -2.55 0 -1.13 -4.84c-0.38,-1.59 -0.77,-2.74 -1.17,-3.45 -0.4,-0.71 -0.86,-1.06 -1.38,-1.06 -0.05,0 -0.09,0 -0.14,0 -0.04,0 -0.11,0.02 -0.22,0.05l0 9.29 -2.46 0zm12.2 0l0 -20.26 2.46 0 0 9.88 2.85 -9.88 2.75 0 -3.49 9.96 4.17 10.3 -2.78 0 -3.51 -9.93 0 9.93 -2.46 0zm11.7 0l0 -20.26 7.21 0 0 2.37 -4.75 0 0 6.08 4.39 0 0 2.37 -4.39 0 0 7.03 4.98 0 0 2.4 -7.45 0zm13.3 0l0 -17.86 -3.23 0 0 -2.4 8.96 0 0 2.4 -3.23 0 0 17.86 -2.49 0zm9.15 0l0 -20.26 2.49 0 0 20.26 -2.49 0zm7.46 -20.26l2.14 0 3.49 9.91c0.19,0.52 0.48,1.39 0.87,2.61 0.15,0.47 0.27,0.83 0.35,1.07 -0.04,-0.75 -0.08,-1.51 -0.11,-2.29 -0.02,-0.78 -0.03,-1.62 -0.03,-2.52l0 -8.78 2.34 0 0 20.26 -2.17 0 -3.46 -9.79c-0.13,-0.35 -0.33,-0.95 -0.62,-1.81 -0.28,-0.86 -0.48,-1.47 -0.6,-1.82 0.05,0.73 0.08,1.49 0.11,2.27 0.02,0.79 0.03,1.62 0.03,2.49l0 8.66 -2.34 0 0 -20.26zm23.15 19.43c-0.56,0.41 -1.12,0.71 -1.68,0.91 -0.55,0.2 -1.12,0.3 -1.7,0.3 -2.13,0 -3.79,-0.92 -4.99,-2.75 -1.2,-1.83 -1.8,-4.39 -1.8,-7.66 0,-3.39 0.57,-6 1.7,-7.84 1.14,-1.83 2.74,-2.75 4.82,-2.75 0.67,0 1.3,0.12 1.9,0.35 0.6,0.23 1.19,0.59 1.76,1.08l0 2.87c-0.61,-0.65 -1.21,-1.14 -1.8,-1.45 -0.59,-0.32 -1.2,-0.47 -1.83,-0.47 -1.28,0 -2.25,0.7 -2.93,2.11 -0.68,1.41 -1.01,3.46 -1.01,6.14 0,2.58 0.34,4.55 1.01,5.93 0.68,1.38 1.65,2.07 2.9,2.07 0.15,0 0.34,-0.02 0.54,-0.06 0.21,-0.04 0.42,-0.09 0.64,-0.16l0 -6.4 -1.84 0 0 -2.34 4.3 0 0 10.12z"/>
</svg>
