<?xml version="1.0" encoding="UTF-8"?>
<!DOCTYPE svg PUBLIC "-//W3C//DTD SVG 1.1//EN" "http://www.w3.org/Graphics/SVG/1.1/DTD/svg11.dtd">
<!-- Creator: CorelDRAW 2020 (64-Bit) -->
<svg id="honeycomb" xmlns="http://www.w3.org/2000/svg" xml:space="preserve" width="346.301mm" height="215.316mm" version="1.1" style="shape-rendering:geometricPrecision; text-rendering:geometricPrecision; image-rendering:optimizeQuality; fill-rule:evenodd; clip-rule:evenodd"
viewBox="0 0 10935.64 6799.32"
 xmlns:xlink="http://www.w3.org/1999/xlink"
 xmlns:xodm="http://www.corel.com/coreldraw/odm/2003">
  <path class="fil0" d="M293.97 0l146.98 84.86 146.98 84.86 0 169.72 0 169.72 -146.98 84.86 -146.98 84.86 -146.98 -84.86 -146.98 -84.86 0 -169.72 0 -169.72 146.98 -84.86 146.98 -84.86zm10024.33 6120.43l146.98 84.86 146.98 84.86 0 169.72 0 169.72 -146.98 84.86 -146.98 84.86 -146.98 -84.86 -146.98 -84.86 0 -169.72 0 -169.72 146.98 -84.86 146.98 -84.86zm-323.37 -546.78l146.98 84.86 146.98 84.86 0 0 0 169.72 0 169.72 0 0 -146.98 84.86 -146.98 84.86 -146.98 -84.86 -146.98 -84.86 0 -0 0 -169.72 0 -169.72 0 -0 146.98 -84.86 146.98 -84.86zm29.4 -37.61l-0 -0 0 -169.72 0 -169.72 146.98 -84.86 146.98 -84.86 146.98 84.86 146.98 84.86 0 0 0 169.72 0 169.72 0 0 -146.98 84.86 -146.98 84.86 -146.98 -84.86 -146.98 -84.86zm-352.77 -509.17l146.98 84.86 146.98 84.86 0 0 0 169.72 0 169.72 0 0 -146.98 84.86 -146.98 84.86 -146.98 -84.86 -146.98 -84.86 0 -0 0 -169.72 0 -169.72 0 -0 146.98 -84.86 146.98 -84.86zm970.1 546.78l146.98 84.86 146.98 84.86 0 169.72 0 169.72 -146.98 84.86 -146.98 84.86 -146.98 -84.86 -146.98 -84.86 0 -169.72 0 -169.72 146.98 -84.86 146.98 -84.86zm0 -5573.65l146.98 84.86 146.98 84.86 0 169.72 0 169.72 -146.98 84.86 -146.98 84.86 -146.98 -84.86 -146.98 -84.86 0 -169.72 0 -169.72 146.98 -84.86 146.98 -84.86zm-646.73 0l146.98 84.86 146.98 84.86 0 169.72 0 169.72 -146.98 84.86 -146.98 84.86 -146.98 -84.86 -146.98 -84.86 0 -169.72 0 -169.72 146.98 -84.86 146.98 -84.86zm646.73 1117.09l146.98 84.86 146.98 84.86 0 169.72 0 169.72 -146.98 84.86 -146.98 84.86 -146.98 -84.86 -146.98 -84.86 0 -169.72 0 -169.72 146.98 -84.86 146.98 -84.86zm-323.37 -558.54l146.98 84.86 146.98 84.86 0 169.72 0 169.72 -146.98 84.86 -146.98 84.86 -146.98 -84.86 -146.98 -84.86 0 -169.72 0 -169.72 146.98 -84.86 146.98 -84.86zm0 1128.84l146.98 84.86 146.98 84.86 0 169.72 0 169.72 -146.98 84.86 -146.98 84.86 -146.98 -84.86 -146.98 -84.86 0 -169.72 0 -169.72 146.98 -84.86 146.98 -84.86zm-323.37 -570.3l146.98 84.86 146.98 84.86 0 169.72 0 169.72 -146.98 84.86 -146.98 84.86 -146.98 -84.86 -146.98 -84.86 0 -169.72 0 -169.72 146.98 -84.86 146.98 -84.86zm-323.37 -558.54l146.98 84.86 146.98 84.86 0 169.72 0 169.72 -146.98 84.86 -146.98 84.86 -146.98 -84.86 -146.98 -84.86 0 -169.72 0 -169.72 146.98 -84.86 146.98 -84.86zm0 1128.84l146.98 84.86 146.98 84.86 0 169.72 0 169.72 -146.98 84.86 -146.98 84.86 -146.98 -84.86 -146.98 -84.86 0 -169.72 0 -169.72 146.98 -84.86 146.98 -84.86zm970.1 2792.7l146.98 84.86 146.98 84.86 0 169.72 0 169.72 -146.98 84.86 -146.98 84.86 -146.98 -84.86 -146.98 -84.86 0 -169.72 0 -169.72 146.98 -84.86 146.98 -84.86zm-646.73 0l146.98 84.86 146.98 84.86 0 169.72 0 169.72 -146.98 84.86 -146.98 84.86 -146.98 -84.86 -146.98 -84.86 0 -169.72 0 -169.72 146.98 -84.86 146.98 -84.86zm646.73 -2240.04l146.98 84.86 146.98 84.86 0 169.72 0 169.72 -146.98 84.86 -146.98 84.86 -146.98 -84.86 -146.98 -84.86 0 -169.72 0 -169.72 146.98 -84.86 146.98 -84.86zm0 1128.84l146.98 84.86 146.98 84.86 0 169.72 0 169.72 -146.98 84.86 -146.98 84.86 -146.98 -84.86 -146.98 -84.86 0 -169.72 0 -169.72 146.98 -84.86 146.98 -84.86zm-323.37 -570.3l146.98 84.86 146.98 84.86 0 169.72 0 169.72 -146.98 84.86 -146.98 84.86 -146.98 -84.86 -146.98 -84.86 0 -169.72 0 -169.72 146.98 -84.86 146.98 -84.86zm0 1128.84l146.98 84.86 146.98 84.86 0 169.72 0 169.72 -146.98 84.86 -146.98 84.86 -146.98 -84.86 -146.98 -84.86 0 -169.72 0 -169.72 146.98 -84.86 146.98 -84.86zm-323.37 -1687.38l146.98 84.86 146.98 84.86 0 169.72 0 169.72 -146.98 84.86 -146.98 84.86 -146.98 -84.86 -146.98 -84.86 0 -169.72 0 -169.72 146.98 -84.86 146.98 -84.86zm0 1128.84l146.98 84.86 146.98 84.86 0 169.72 0 169.72 -146.98 84.86 -146.98 84.86 -146.98 -84.86 -146.98 -84.86 0 -169.72 0 -169.72 146.98 -84.86 146.98 -84.86zm-323.37 -570.3l146.98 84.86 146.98 84.86 0 169.72 0 169.72 -146.98 84.86 -146.98 84.86 -146.98 -84.86 -146.98 -84.86 0 -169.72 0 -169.72 146.98 -84.86 146.98 -84.86zm0 1128.84l146.98 84.86 146.98 84.86 0 169.72 0 169.72 -146.98 84.86 -146.98 84.86 -146.98 -84.86 -146.98 -84.86 0 -169.72 0 -169.72 146.98 -84.86 146.98 -84.86zm-323.37 1646.22l146.98 84.86 146.98 84.86 0 169.72 0 169.72 -146.98 84.86 -146.98 84.86 -146.98 -84.86 -146.98 -84.86 0 -169.72 0 -169.72 146.98 -84.86 146.98 -84.86zm-323.37 -546.78l146.98 84.86 146.98 84.86 0 0 0 169.72 0 169.72 0 0 -146.98 84.86 -146.98 84.86 -146.98 -84.86 -146.98 -84.86 0 -0 0 -169.72 0 -169.72 0 -0 146.98 -84.86 146.98 -84.86zm323.37 -5026.87l146.98 84.86 146.98 84.86 0 169.72 0 169.72 -146.98 84.86 -146.98 84.86 -146.98 -84.86 -146.98 -84.86 0 -169.72 0 -169.72 146.98 -84.86 146.98 -84.86zm-646.73 0l146.98 84.86 146.98 84.86 0 169.72 0 169.72 -146.98 84.86 -146.98 84.86 -146.98 -84.86 -146.98 -84.86 0 -169.72 0 -169.72 146.98 -84.86 146.98 -84.86zm-646.73 0l146.98 84.86 146.98 84.86 0 169.72 0 169.72 -146.98 84.86 -146.98 84.86 -146.98 -84.86 -146.98 -84.86 0 -169.72 0 -169.72 146.98 -84.86 146.98 -84.86zm-646.73 0l146.98 84.86 146.98 84.86 0 169.72 0 169.72 -146.98 84.86 -146.98 84.86 -146.98 -84.86 -146.98 -84.86 0 -169.72 0 -169.72 146.98 -84.86 146.98 -84.86zm-646.73 0l146.98 84.86 146.98 84.86 0 169.72 0 169.72 -146.98 84.86 -146.98 84.86 -146.98 -84.86 -146.98 -84.86 0 -169.72 0 -169.72 146.98 -84.86 146.98 -84.86zm-646.73 0l146.98 84.86 146.98 84.86 0 169.72 0 169.72 -146.98 84.86 -146.98 84.86 -146.98 -84.86 -146.98 -84.86 0 -169.72 0 -169.72 146.98 -84.86 146.98 -84.86zm3233.66 1117.09l146.98 84.86 146.98 84.86 0 169.72 0 169.72 -146.98 84.86 -146.98 84.86 -146.98 -84.86 -146.98 -84.86 0 -169.72 0 -169.72 146.98 -84.86 146.98 -84.86zm-323.37 -558.54l146.98 84.86 146.98 84.86 0 169.72 0 169.72 -146.98 84.86 -146.98 84.86 -146.98 -84.86 -146.98 -84.86 0 -169.72 0 -169.72 146.98 -84.86 146.98 -84.86zm0 1128.84l146.98 84.86 146.98 84.86 0 169.72 0 169.72 -146.98 84.86 -146.98 84.86 -146.98 -84.86 -146.98 -84.86 0 -169.72 0 -169.72 146.98 -84.86 146.98 -84.86zm-323.37 -570.3l146.98 84.86 146.98 84.86 0 169.72 0 169.72 -146.98 84.86 -146.98 84.86 -146.98 -84.86 -146.98 -84.86 0 -169.72 0 -169.72 146.98 -84.86 146.98 -84.86zm-323.37 -558.54l146.98 84.86 146.98 84.86 0 169.72 0 169.72 -146.98 84.86 -146.98 84.86 -146.98 -84.86 -146.98 -84.86 0 -169.72 0 -169.72 146.98 -84.86 146.98 -84.86zm0 1128.84l146.98 84.86 146.98 84.86 0 169.72 0 169.72 -146.98 84.86 -146.98 84.86 -146.98 -84.86 -146.98 -84.86 0 -169.72 0 -169.72 146.98 -84.86 146.98 -84.86zm-323.37 -570.3l146.98 84.86 146.98 84.86 0 169.72 0 169.72 -146.98 84.86 -146.98 84.86 -146.98 -84.86 -146.98 -84.86 0 -169.72 0 -169.72 146.98 -84.86 146.98 -84.86zm-323.37 -558.54l146.98 84.86 146.98 84.86 0 169.72 0 169.72 -146.98 84.86 -146.98 84.86 -146.98 -84.86 -146.98 -84.86 0 -169.72 0 -169.72 146.98 -84.86 146.98 -84.86zm0 1128.84l146.98 84.86 146.98 84.86 0 169.72 0 169.72 -146.98 84.86 -146.98 84.86 -146.98 -84.86 -146.98 -84.86 0 -169.72 0 -169.72 146.98 -84.86 146.98 -84.86zm-323.37 -570.3l146.98 84.86 146.98 84.86 0 169.72 0 169.72 -146.98 84.86 -146.98 84.86 -146.98 -84.86 -146.98 -84.86 0 -169.72 0 -169.72 146.98 -84.86 146.98 -84.86zm-323.37 -558.54l146.98 84.86 146.98 84.86 0 169.72 0 169.72 -146.98 84.86 -146.98 84.86 -146.98 -84.86 -146.98 -84.86 0 -169.72 0 -169.72 146.98 -84.86 146.98 -84.86zm0 1128.84l146.98 84.86 146.98 84.86 0 169.72 0 169.72 -146.98 84.86 -146.98 84.86 -146.98 -84.86 -146.98 -84.86 0 -169.72 0 -169.72 146.98 -84.86 146.98 -84.86zm-323.37 -570.3l146.98 84.86 146.98 84.86 0 169.72 0 169.72 -146.98 84.86 -146.98 84.86 -146.98 -84.86 -146.98 -84.86 0 -169.72 0 -169.72 146.98 -84.86 146.98 -84.86zm-323.37 -558.54l146.98 84.86 146.98 84.86 0 169.72 0 169.72 -146.98 84.86 -146.98 84.86 -146.98 -84.86 -146.98 -84.86 0 -169.72 0 -169.72 146.98 -84.86 146.98 -84.86zm0 1128.84l146.98 84.86 146.98 84.86 0 169.72 0 169.72 -146.98 84.86 -146.98 84.86 -146.98 -84.86 -146.98 -84.86 0 -169.72 0 -169.72 146.98 -84.86 146.98 -84.86zm-323.36 -570.3l146.98 84.86 146.98 84.86 0 169.72 0 169.72 -146.98 84.86 -146.98 84.86 -146.98 -84.86 -146.98 -84.86 0 -169.72 0 -169.72 146.98 -84.86 146.98 -84.86zm-323.37 -558.54l146.98 84.86 146.98 84.86 0 169.72 0 169.72 -146.98 84.86 -146.98 84.86 -146.98 -84.86 -146.98 -84.86 0 -169.72 0 -169.72 146.98 -84.86 146.98 -84.86zm0 1128.84l146.98 84.86 146.98 84.86 0 169.72 0 169.72 -146.98 84.86 -146.98 84.86 -146.98 -84.86 -146.98 -84.86 0 -169.72 0 -169.72 146.98 -84.86 146.98 -84.86zm-323.37 -570.3l146.98 84.86 146.98 84.86 0 11.75 0 0 0 169.72 0 169.72 -146.98 84.86 -146.98 84.86 -146.98 -84.86 -146.98 -84.86 0 -11.76 0 -157.96 0 -169.72 0 -11.76 146.98 -84.86 146.98 -84.86zm-29.4 -49.37l-146.98 84.86 -146.98 84.86 -146.98 -84.86 -146.98 -84.86 0 -169.72 0 -169.72 0 -0 62.12 -35.86 84.86 -49 146.98 -84.86 146.98 84.86 146.98 84.86 0 169.72 0 169.72 -0 0zm-200.78 1244.76l-93.18 53.8 -146.98 -84.86 -146.98 -84.86 0 -169.72 0 -169.72 84.86 -49 62.12 -35.87 146.98 -84.86 146.98 84.86 146.98 84.86 0 169.72 0 169.72 -146.98 84.86 -53.8 31.06zm3140.47 2714.4l146.98 84.86 146.98 84.86 0 169.72 0 169.72 -146.98 84.86 -146.98 84.86 -146.98 -84.86 -146.98 -84.86 0 -169.72 0 -169.72 146.98 -84.86 146.98 -84.86zm970.1 -546.78l146.98 84.86 146.98 84.86 0 169.72 0 169.72 -146.98 84.86 -146.98 84.86 -146.98 -84.86 -146.98 -84.86 0 -169.72 0 -169.72 146.98 -84.86 146.98 -84.86zm-646.73 0l146.98 84.86 146.98 84.86 0 169.72 0 169.72 -146.98 84.86 -146.98 84.86 -146.98 -84.86 -146.98 -84.86 0 -169.72 0 -169.72 146.98 -84.86 146.98 -84.86zm-646.73 0l146.98 84.86 146.98 84.86 0 169.72 0 169.72 -146.98 84.86 -146.98 84.86 -146.98 -84.86 -146.98 -84.86 0 -169.72 0 -169.72 146.98 -84.86 146.98 -84.86zm-646.73 0l146.98 84.86 146.98 84.86 0 169.72 0 169.72 -146.98 84.86 -146.98 84.86 -146.98 -84.86 -146.98 -84.86 0 -169.72 0 -169.72 146.98 -84.86 146.98 -84.86zm1940.19 -2240.04l146.98 84.86 146.98 84.86 0 169.72 0 169.72 -146.98 84.86 -146.98 84.86 -146.98 -84.86 -146.98 -84.86 0 -169.72 0 -169.72 146.98 -84.86 146.98 -84.86zm0 1128.84l146.98 84.86 146.98 84.86 0 169.72 0 169.72 -146.98 84.86 -146.98 84.86 -146.98 -84.86 -146.98 -84.86 0 -169.72 0 -169.72 146.98 -84.86 146.98 -84.86zm-323.37 -570.3l146.98 84.86 146.98 84.86 0 169.72 0 169.72 -146.98 84.86 -146.98 84.86 -146.98 -84.86 -146.98 -84.86 0 -169.72 0 -169.72 146.98 -84.86 146.98 -84.86zm0 1128.84l146.98 84.86 146.98 84.86 0 169.72 0 169.72 -146.98 84.86 -146.98 84.86 -146.98 -84.86 -146.98 -84.86 0 -169.72 0 -169.72 146.98 -84.86 146.98 -84.86zm-323.37 -1687.38l146.98 84.86 146.98 84.86 0 169.72 0 169.72 -146.98 84.86 -146.98 84.86 -146.98 -84.86 -146.98 -84.86 0 -169.72 0 -169.72 146.98 -84.86 146.98 -84.86zm0 1128.84l146.98 84.86 146.98 84.86 0 169.72 0 169.72 -146.98 84.86 -146.98 84.86 -146.98 -84.86 -146.98 -84.86 0 -169.72 0 -169.72 146.98 -84.86 146.98 -84.86zm-323.37 -570.3l146.98 84.86 146.98 84.86 0 169.72 0 169.72 -146.98 84.86 -146.98 84.86 -146.98 -84.86 -146.98 -84.86 0 -169.72 0 -169.72 146.98 -84.86 146.98 -84.86zm0 1128.84l146.98 84.86 146.98 84.86 0 169.72 0 169.72 -146.98 84.86 -146.98 84.86 -146.98 -84.86 -146.98 -84.86 0 -169.72 0 -169.72 146.98 -84.86 146.98 -84.86zm-323.37 -1687.38l146.98 84.86 146.98 84.86 0 169.72 0 169.72 -146.98 84.86 -146.98 84.86 -146.98 -84.86 -146.98 -84.86 0 -169.72 0 -169.72 146.98 -84.86 146.98 -84.86zm0 1128.84l146.98 84.86 146.98 84.86 0 169.72 0 169.72 -146.98 84.86 -146.98 84.86 -146.98 -84.86 -146.98 -84.86 0 -169.72 0 -169.72 146.98 -84.86 146.98 -84.86zm-323.37 -570.3l146.98 84.86 146.98 84.86 0 169.72 0 169.72 -146.98 84.86 -146.98 84.86 -146.98 -84.86 -146.98 -84.86 0 -169.72 0 -169.72 146.98 -84.86 146.98 -84.86zm0 1128.84l146.98 84.86 146.98 84.86 0 169.72 0 169.72 -146.98 84.86 -146.98 84.86 -146.98 -84.86 -146.98 -84.86 0 -169.72 0 -169.72 146.98 -84.86 146.98 -84.86zm-323.37 -1687.38l146.98 84.86 146.98 84.86 0 169.72 0 169.72 -146.98 84.86 -146.98 84.86 -146.98 -84.86 -146.98 -84.86 0 -169.72 0 -169.72 146.98 -84.86 146.98 -84.86zm0 1128.84l146.98 84.86 146.98 84.86 0 169.72 0 169.72 -146.98 84.86 -146.98 84.86 -146.98 -84.86 -146.98 -84.86 0 -169.72 0 -169.72 146.98 -84.86 146.98 -84.86zm-323.36 -570.3l146.98 84.86 146.98 84.86 0 169.72 0 169.72 -146.98 84.86 -146.98 84.86 -146.98 -84.86 -146.98 -84.86 0 -169.72 0 -169.72 146.98 -84.86 146.98 -84.86zm0 1128.84l146.98 84.86 146.98 84.86 0 169.72 0 169.72 -146.98 84.86 -146.98 84.86 -146.98 -84.86 -146.98 -84.86 0 -169.72 0 -169.72 146.98 -84.86 146.98 -84.86zm-323.37 -1687.38l146.98 84.86 146.98 84.86 0 169.72 0 169.72 -146.98 84.86 -146.98 84.86 -146.98 -84.86 -146.98 -84.86 0 -169.72 0 -169.72 146.98 -84.86 146.98 -84.86zm0 1128.84l146.98 84.86 146.98 84.86 0 169.72 0 169.72 -146.98 84.86 -146.98 84.86 -146.98 -84.86 -146.98 -84.86 0 -169.72 0 -169.72 146.98 -84.86 146.98 -84.86zm-323.37 -570.3l146.98 84.86 146.98 84.86 0 169.72 0 169.72 -146.98 84.86 -146.98 84.86 -146.98 -84.86 -146.98 -84.86 0 -169.72 0 -169.72 146.98 -84.86 146.98 -84.86zm0 1128.84l146.98 84.86 146.98 84.86 0 169.72 0 169.72 -146.98 84.86 -146.98 84.86 -146.98 -84.86 -146.98 -84.86 0 -169.72 0 -169.72 146.98 -84.86 146.98 -84.86zm-323.37 -1687.38l146.98 84.86 146.98 84.86 0 169.72 0 169.72 -146.98 84.86 -146.98 84.86 -146.98 -84.86 -146.98 -84.86 0 -169.72 0 -169.72 146.98 -84.86 146.98 -84.86zm0 1128.84l146.98 84.86 146.98 84.86 0 169.72 0 169.72 -146.98 84.86 -146.98 84.86 -146.98 -84.86 -146.98 -84.86 0 -169.72 0 -169.72 146.98 -84.86 146.98 -84.86zm-323.37 -570.3l146.98 84.86 146.98 84.86 0 169.72 0 169.72 -146.98 84.86 -146.98 84.86 -146.98 -84.86 -146.98 -84.86 0 -169.72 0 -169.72 146.98 -84.86 146.98 -84.86zm-29.4 -49.37l-146.98 84.86 -146.98 84.86 -146.98 -84.86 -146.98 -84.86 0 -0 0 -169.72 0 -169.72 0 -0 146.98 -84.86 146.98 -84.86 146.98 84.86 146.98 84.86 0 169.72 0 169.72 -0 0zm-293.97 619.67l146.98 84.86 146.98 84.86 0 169.72 0 169.72 -146.98 84.86 -146.98 84.86 -146.98 -84.86 -146.98 -84.86 0 -169.72 0 -169.72 146.98 -84.86 146.98 -84.86zm-29.4 -72.89l0 11.76 -146.98 84.86 -146.98 84.86 -146.98 -84.86 -146.98 -84.86 0 -169.72 0 -169.72 0 -0 0 -11.76 146.98 -84.86 146.98 -84.86 146.98 84.86 146.98 84.86 0 11.76 0 157.96 0 169.72zm-323.37 -546.78l0 0 -146.98 84.86 -146.98 84.86 -146.98 -84.86 -146.98 -84.86 0 -169.72 0 -169.72 0 -0 62.12 -35.86 84.86 -49 146.98 -84.86 146.98 84.86 146.98 84.86 0 0 0 169.72 0 169.72zm-323.37 546.78l0 11.76 -146.98 84.86 -146.98 84.86 -146.98 -84.86 -146.98 -84.86 0 -169.72 0 -169.72 0 -0 0 -11.76 146.98 -84.86 146.98 -84.86 146.98 84.86 146.98 84.86 0 11.76 0 157.96 0 169.72zm-323.37 -546.78l0 0 -146.98 84.86 -146.98 84.86 -146.98 -84.86 -146.98 -84.86 0 -169.72 0 -169.72 0 -0 62.12 -35.86 84.86 -49 146.98 -84.86 146.98 84.86 146.98 84.86 0 0 0 169.72 0 169.72zm-940.7 -509.17l146.98 84.86 146.98 84.86 0 169.72 0 169.72 -146.98 84.86 -146.98 84.86 -146.98 -84.86 -146.98 -84.86 0 -169.72 0 -169.72 146.98 -84.86 146.98 -84.86zm1940.19 -2240.04l146.98 84.86 146.98 84.86 0 169.72 0 169.72 -146.98 84.86 -146.98 84.86 -146.98 -84.86 -146.98 -84.86 0 -169.72 0 -169.72 146.98 -84.86 146.98 -84.86zm-646.73 0l146.98 84.86 146.98 84.86 0 169.72 0 169.72 -146.98 84.86 -146.98 84.86 -146.98 -84.86 -146.98 -84.86 0 -169.72 0 -169.72 146.98 -84.86 146.98 -84.86zm0 1128.84l146.98 84.86 146.98 84.86 0 169.72 0 169.72 -146.98 84.86 -146.98 84.86 -146.98 -84.86 -146.98 -84.86 0 -169.72 0 -169.72 146.98 -84.86 146.98 -84.86zm-323.37 -570.3l146.98 84.86 146.98 84.86 0 169.72 0 169.72 -146.98 84.86 -146.98 84.86 -146.98 -84.86 -146.98 -84.86 0 -169.72 0 -169.72 146.98 -84.86 146.98 -84.86zm0 1128.84l146.98 84.86 146.98 84.86 0 169.72 0 169.72 -146.98 84.86 -146.98 84.86 -146.98 -84.86 -146.98 -84.86 0 -169.72 0 -169.72 146.98 -84.86 146.98 -84.86zm-323.37 -1687.38l146.98 84.86 146.98 84.86 0 169.72 0 169.72 -146.98 84.86 -146.98 84.86 -146.98 -84.86 -146.98 -84.86 0 -169.72 0 -169.72 146.98 -84.86 146.98 -84.86zm0 1128.84l146.98 84.86 146.98 84.86 0 169.72 0 169.72 -146.98 84.86 -146.98 84.86 -146.98 -84.86 -146.98 -84.86 0 -169.72 0 -169.72 146.98 -84.86 146.98 -84.86zm-323.37 -570.3l146.98 84.86 146.98 84.86 0 169.72 0 169.72 -146.98 84.86 -146.98 84.86 -146.98 -84.86 -146.98 -84.86 0 -169.72 0 -169.72 146.98 -84.86 146.98 -84.86zm0 1128.84l146.98 84.86 146.98 84.86 0 169.72 0 169.72 -146.98 84.86 -146.98 84.86 -146.98 -84.86 -146.98 -84.86 0 -169.72 0 -169.72 146.98 -84.86 146.98 -84.86zm-323.37 -1687.38l146.98 84.86 146.98 84.86 0 169.72 0 169.72 -146.98 84.86 -146.98 84.86 -146.98 -84.86 -146.98 -84.86 0 -169.72 0 -169.72 146.98 -84.86 146.98 -84.86zm0 1128.84l146.98 84.86 146.98 84.86 0 169.72 0 169.72 -146.98 84.86 -146.98 84.86 -146.98 -84.86 -146.98 -84.86 0 -169.72 0 -169.72 146.98 -84.86 146.98 -84.86zm-323.36 -570.3l146.98 84.86 146.98 84.86 0 169.72 0 169.72 -146.98 84.86 -146.98 84.86 -146.98 -84.86 -146.98 -84.86 0 -169.72 0 -169.72 146.98 -84.86 146.98 -84.86zm0 1128.84l146.98 84.86 146.98 84.86 0 169.72 0 169.72 -146.98 84.86 -146.98 84.86 -146.98 -84.86 -146.98 -84.86 0 -169.72 0 -169.72 146.98 -84.86 146.98 -84.86zm-323.37 -1687.38l146.98 84.86 146.98 84.86 0 169.72 0 169.72 -146.98 84.86 -146.98 84.86 -146.98 -84.86 -146.98 -84.86 0 -169.72 0 -169.72 146.98 -84.86 146.98 -84.86zm0 1128.84l146.98 84.86 146.98 84.86 0 169.72 0 169.72 -146.98 84.86 -146.98 84.86 -146.98 -84.86 -146.98 -84.86 0 -169.72 0 -169.72 146.98 -84.86 146.98 -84.86zm-323.37 -570.3l146.98 84.86 146.98 84.86 0 169.72 0 169.72 -146.98 84.86 -146.98 84.86 -146.98 -84.86 -146.98 -84.86 0 -169.72 0 -169.72 146.98 -84.86 146.98 -84.86zm0 1128.84l146.98 84.86 146.98 84.86 0 169.72 0 169.72 -146.98 84.86 -146.98 84.86 -146.98 -84.86 -146.98 -84.86 0 -169.72 0 -169.72 146.98 -84.86 146.98 -84.86zm-323.37 -1687.38l146.98 84.86 146.98 84.86 0 169.72 0 169.72 -146.98 84.86 -146.98 84.86 -146.98 -84.86 -146.98 -84.86 0 -169.72 0 -169.72 146.98 -84.86 146.98 -84.86zm0 1128.84l146.98 84.86 146.98 84.86 0 169.72 0 169.72 -146.98 84.86 -146.98 84.86 -146.98 -84.86 -146.98 -84.86 0 -169.72 0 -169.72 146.98 -84.86 146.98 -84.86zm-323.37 -570.3l146.98 84.86 146.98 84.86 0 169.72 0 169.72 -146.98 84.86 -146.98 84.86 -146.98 -84.86 -146.98 -84.86 0 -169.72 0 -169.72 146.98 -84.86 146.98 -84.86zm-323.37 -558.54l146.98 84.86 146.98 84.86 0 169.72 0 169.72 -146.98 84.86 -146.98 84.86 -146.98 -84.86 -146.98 -84.86 0 -169.72 0 -169.72 146.98 -84.86 146.98 -84.86zm0 1128.84l146.98 84.86 146.98 84.86 0 169.72 0 169.72 -146.98 84.86 -146.98 84.86 -146.98 -84.86 -146.98 -84.86 0 -169.72 0 -169.72 146.98 -84.86 146.98 -84.86zm-323.37 -570.3l146.98 84.86 146.98 84.86 0 169.72 0 169.72 -146.98 84.86 -146.98 84.86 -146.98 -84.86 -146.98 -84.86 0 -169.72 0 -169.72 146.98 -84.86 146.98 -84.86zm-323.37 -558.54l146.98 84.86 146.98 84.86 0 169.72 0 169.72 -146.98 84.86 -146.98 84.86 -146.98 -84.86 -146.98 -84.86 0 -169.72 0 -169.72 146.98 -84.86 146.98 -84.86zm-323.37 558.54l146.98 84.86 146.98 84.86 0 169.72 0 169.72 -146.98 84.86 -146.98 84.86 -146.98 -84.86 -146.98 -84.86 0 -169.72 0 -169.72 146.98 -84.86 146.98 -84.86z"/>
</svg>
