<?xml version="1.0" encoding="UTF-8"?>
<!DOCTYPE svg PUBLIC "-//W3C//DTD SVG 1.1//EN" "http://www.w3.org/Graphics/SVG/1.1/DTD/svg11.dtd">
<!-- Creator: CorelDRAW 2020 (64-Bit) -->
<svg xmlns="http://www.w3.org/2000/svg" xml:space="preserve" width="64.9237mm" height="23.9773mm" version="1.1" style="shape-rendering:geometricPrecision; text-rendering:geometricPrecision; image-rendering:optimizeQuality; fill-rule:evenodd; clip-rule:evenodd"
viewBox="0 0 2646.72 977.47"
 xmlns:xlink="http://www.w3.org/1999/xlink"
 xmlns:xodm="http://www.corel.com/coreldraw/odm/2003">
 <defs>
  <style type="text/css">
   <![CDATA[
    .fil0 {fill:#FEFEFE;fill-rule:nonzero}
   ]]>
  </style>
 </defs>
 <g id="Layer_x0020_1">
  <metadata id="CorelCorpID_0Corel-Layer"/>
  <g id="_2222528928720">
   <path class="fil0" d="M277.23 408.64l-243.94 0 0 44.33 -32.83 0 0 -122.81 32.83 0 0 44.33 243.94 0 0 34.16zm0 -116.22l-276.77 0 0 -34.16 121.57 0 0 -56.12 -121.57 0 0 -34.16 276.77 0 0 34.16 -123.19 0 0 56.12 123.19 0 0 34.16zm0 -182.92l-276.77 0 0 -98.82 32.42 0 0 65.07 83.07 0 0 -60.19 32.42 0 0 60.19 96.04 0 0 -68.32 32.82 0 0 102.07z"/>
   <path class="fil0" d="M54.66 924.68l9.87 0c31.67,0 54.99,-13.69 69.96,-41.06 14.86,-27.37 22.34,-70.17 22.34,-128.28 0,-59.64 -7.37,-102.98 -22.23,-130.14 -14.75,-27.15 -38.18,-40.73 -70.07,-40.73l-9.87 0 0 340.21zm-54.66 52.79l0 -445.14 63.88 0c50.32,0 87.96,18.47 112.9,55.4 24.84,36.82 37.31,92.55 37.31,166.96 0,74.51 -12.47,130.24 -37.53,167.28 -24.95,37.04 -62.47,55.51 -112.69,55.51l-63.88 0zm305.4 0l0 -445.14 158.13 0 0 52.14 -104.12 0 0 133.6 96.31 0 0 52.14 -96.31 0 0 154.46 109.33 0 0 52.79 -163.34 0zm311.05 -250.27l1.95 0c23.43,0 41.11,-5.87 53.04,-17.6 11.93,-11.84 17.9,-29.22 17.9,-52.36 0,-23.68 -5.97,-41.82 -17.79,-54.2 -11.82,-12.38 -29.07,-18.57 -51.95,-18.57l-3.15 0 0 142.73zm-54.66 250.27l0 -445.14 55.31 0c40.78,0 72.67,10.64 95.33,31.83 22.78,21.18 34.17,50.84 34.17,88.86 0,37.26 -10.74,67.67 -32.21,91.13 -21.48,23.46 -48.81,35.19 -81.78,35.19l-4.44 0 -11.72 0 0 198.13 -54.66 0zm293.15 -149.9l63.56 0 -23.21 -143.49c-1.63,-10.21 -3.25,-20.86 -4.56,-32.15 -1.41,-11.19 -2.71,-23.03 -4.01,-35.3 -1.52,14.44 -2.93,27.04 -4.34,37.91 -1.3,10.75 -2.71,20.75 -4.23,29.87l-23.21 143.16zm-80.8 149.9l82.64 -445.14 59.87 0 83.29 445.14 -55.96 0 -16.27 -98.41 -81.34 0 -16.92 98.41 -55.31 0zm352.26 -255.48l5.1 0c15.4,0 27.22,-5.43 35.36,-16.4 8.13,-10.97 12.25,-26.83 12.25,-47.57 0,-24.22 -4.34,-42.58 -12.91,-55.29 -8.57,-12.6 -20.93,-18.9 -37.31,-18.9l-2.49 0 0 138.17zm-54.01 255.48l0 -445.14 52.71 0c33.73,0 60.41,10.75 80.26,32.15 19.85,21.4 29.72,50.29 29.72,86.46 0,22.49 -4.23,41.61 -12.69,57.14 -8.46,15.64 -21.69,28.24 -39.48,38.02 13.56,7.06 24.84,18.79 33.73,35.19 8.9,16.4 17.68,42.25 26.36,77.45l27.87 118.72 -55.85 0 -24.73 -106.34c-8.24,-34.97 -16.81,-60.18 -25.6,-75.71 -8.78,-15.54 -18.87,-23.25 -30.37,-23.25 -1.08,0 -2.06,0 -3.04,0.11 -0.86,0.11 -2.49,0.54 -4.88,1.19l0 204 -54.01 0zm307.79 0l0 -392.35 -70.93 0 0 -52.79 196.52 0 0 52.79 -70.93 0 0 392.35 -54.66 0zm199.88 0l0 -445.14 51.41 0 49.56 126.65c1.41,4.02 3.47,10 6.18,17.82 2.6,7.82 5.75,17.49 9.33,28.9 2.71,-9.45 5.42,-18.14 8.13,-25.85 2.6,-7.82 5.32,-14.99 8.03,-21.83l49.56 -125.68 51.41 0 0 445.14 -51.41 0 0 -260.59c0,-11.3 0.22,-22.92 0.76,-34.98 0.54,-12.16 1.41,-24.55 2.39,-37.26l-68.87 167.39 -68.87 -167.71c1.3,15.75 2.17,29.55 2.82,41.71 0.65,12.06 0.97,22.38 0.97,30.85l0 260.59 -51.41 0zm340.32 0l0 -445.14 158.13 0 0 52.14 -104.12 0 0 133.6 96.31 0 0 52.14 -96.31 0 0 154.46 109.33 0 0 52.79 -163.34 0zm256.39 -445.14l46.96 0 76.57 217.68c4.23,11.41 10.63,30.52 19.09,57.24 3.36,10.43 5.96,18.25 7.59,23.57 -0.97,-16.4 -1.84,-33.13 -2.38,-50.29 -0.54,-17.16 -0.76,-35.63 -0.76,-55.4l0 -192.81 51.41 0 0 445.14 -47.61 0 -75.92 -215.07c-2.82,-7.71 -7.27,-20.97 -13.56,-39.76 -6.18,-18.9 -10.63,-32.26 -13.12,-40.08 1.08,16.08 1.84,32.69 2.38,49.86 0.54,17.27 0.76,35.52 0.76,54.75l0 190.31 -51.41 0 0 -445.14zm343.69 445.14l0 -392.35 -70.93 0 0 -52.79 196.52 0 0 52.79 -70.93 0 0 392.35 -54.66 0z"/>
   <path class="fil0" d="M355.68 452.96l0 -445.14 51.48 0 49.64 126.65c1.41,4.02 3.48,9.99 6.19,17.82 2.61,7.82 5.76,17.49 9.34,28.9 2.72,-9.45 5.43,-18.14 8.15,-25.85 2.6,-7.82 5.32,-14.99 8.04,-21.83l49.64 -125.68 51.49 0 0 445.14 -51.49 0 0 -260.59c0,-11.3 0.22,-22.92 0.76,-34.98 0.54,-12.16 1.41,-24.55 2.39,-37.26l-68.97 167.39 -68.98 -167.71c1.3,15.75 2.17,29.54 2.83,41.71 0.65,12.06 0.97,22.38 0.97,30.85l0 260.59 -51.48 0zm384.82 -149.9l63.66 0 -23.25 -143.49c-1.63,-10.21 -3.26,-20.86 -4.56,-32.15 -1.41,-11.19 -2.72,-23.03 -4.02,-35.3 -1.52,14.45 -2.94,27.05 -4.35,37.91 -1.3,10.75 -2.72,20.75 -4.24,29.87l-23.25 143.16zm-80.92 149.9l82.77 -445.14 59.96 0 83.42 445.14 -56.05 0 -16.29 -98.41 -81.47 0 -16.94 98.41 -55.4 0zm350.39 -255.48l5.1 0c15.43,0 27.26,-5.43 35.41,-16.4 8.15,-10.97 12.27,-26.83 12.27,-47.58 0,-24.22 -4.35,-42.58 -12.93,-55.29 -8.58,-12.6 -20.97,-18.9 -37.37,-18.9l-2.5 0 0 138.17zm-54.09 255.48l0 -445.14 52.79 0c33.78,0 60.51,10.75 80.38,32.15 19.88,21.4 29.76,50.29 29.76,86.46 0,22.49 -4.24,41.6 -12.71,57.14 -8.47,15.64 -21.72,28.24 -39.54,38.02 13.58,7.06 24.88,18.79 33.78,35.19 8.91,16.4 17.7,42.25 26.4,77.44l27.91 118.73 -55.94 0 -24.77 -106.34c-8.26,-34.98 -16.84,-60.18 -25.63,-75.71 -8.8,-15.53 -18.9,-23.25 -30.42,-23.25 -1.08,0 -2.06,0 -3.04,0.11 -0.87,0.11 -2.5,0.54 -4.89,1.19l0 204 -54.09 0zm268.05 0l0 -445.14 54.09 0 0 217.03 62.68 -217.03 60.5 0 -76.69 218.88 91.68 226.26 -61.15 0 -77.02 -218.23 0 218.23 -54.09 0zm256.97 0l0 -445.14 158.37 0 0 52.14 -104.28 0 0 133.61 96.46 0 0 52.14 -96.46 0 0 154.46 109.49 0 0 52.79 -163.58 0zm292.16 0l0 -392.35 -71.04 0 0 -52.79 196.83 0 0 52.79 -71.04 0 0 392.35 -54.75 0zm201.03 0l0 -445.14 54.75 0 0 445.14 -54.75 0zm163.99 -445.14l47.03 0 76.69 217.68c4.24,11.41 10.64,30.52 19.12,57.24 3.37,10.42 5.98,18.25 7.6,23.57 -0.97,-16.4 -1.85,-33.13 -2.39,-50.29 -0.54,-17.16 -0.76,-35.63 -0.76,-55.4l0 -192.81 51.48 0 0 445.14 -47.68 0 -76.03 -215.08c-2.83,-7.71 -7.28,-20.96 -13.58,-39.76 -6.19,-18.9 -10.64,-32.26 -13.14,-40.08 1.08,16.07 1.85,32.69 2.39,49.86 0.54,17.27 0.76,35.52 0.76,54.75l0 190.31 -51.49 0 0 -445.14zm508.65 426.89c-12.27,8.91 -24.55,15.64 -36.82,20.09 -12.17,4.46 -24.66,6.63 -37.37,6.63 -46.71,0 -83.31,-20.2 -109.71,-60.51 -26.4,-40.3 -39.65,-96.35 -39.65,-168.26 0,-74.51 12.49,-131.87 37.37,-172.17 24.99,-40.3 60.29,-60.51 105.91,-60.51 14.67,0 28.57,2.61 41.71,7.71 13.14,5.11 26.07,12.93 38.56,23.68l0 63.11c-13.36,-14.34 -26.5,-24.99 -39.43,-31.94 -13.03,-6.95 -26.4,-10.43 -40.19,-10.43 -28.02,0 -49.42,15.43 -64.31,46.38 -14.88,30.96 -22.27,75.93 -22.27,134.91 0,56.59 7.39,100.04 22.27,130.35 14.88,30.31 36.17,45.51 63.76,45.51 3.37,0 7.39,-0.43 11.95,-1.3 4.56,-0.87 9.23,-1.95 14.12,-3.47l0 -140.56 -40.41 0 0 -51.49 94.5 0 0 222.24z"/>
  </g>
 </g>
</svg>
